<mxfile host="app.diagrams.net" modified="2024-05-04T10:02:07.486Z" agent="Mozilla/5.0 (Windows NT 10.0; Win64; x64) AppleWebKit/537.36 (KHTML, like Gecko) Chrome/124.0.0.0 Safari/537.36" etag="ri5-CuWV-6R8cNtAPSQK" version="24.3.1" type="device">
  <diagram name="Page-1" id="0783ab3e-0a74-02c8-0abd-f7b4e66b4bec">
    <mxGraphModel dx="1154" dy="509" grid="1" gridSize="10" guides="1" tooltips="1" connect="1" arrows="1" fold="1" page="1" pageScale="1" pageWidth="850" pageHeight="1100" background="none" math="0" shadow="0">
      <root>
        <mxCell id="0" />
        <mxCell id="1" parent="0" />
        <mxCell id="_4ekiTGMIbGtFQKtluX7-7" style="edgeStyle=orthogonalEdgeStyle;rounded=0;orthogonalLoop=1;jettySize=auto;html=1;" edge="1" parent="1" source="60571a20871a0731-4" target="_4ekiTGMIbGtFQKtluX7-6">
          <mxGeometry relative="1" as="geometry" />
        </mxCell>
        <mxCell id="_4ekiTGMIbGtFQKtluX7-18" value="deploy" style="edgeLabel;html=1;align=center;verticalAlign=middle;resizable=0;points=[];" vertex="1" connectable="0" parent="_4ekiTGMIbGtFQKtluX7-7">
          <mxGeometry x="0.0662" relative="1" as="geometry">
            <mxPoint y="-2" as="offset" />
          </mxGeometry>
        </mxCell>
        <mxCell id="60571a20871a0731-4" value="" style="ellipse;whiteSpace=wrap;html=1;rounded=0;shadow=0;comic=0;labelBackgroundColor=none;strokeWidth=1;fillColor=#000000;fontFamily=Verdana;fontSize=12;align=center;" parent="1" vertex="1">
          <mxGeometry x="445" y="40" width="30" height="30" as="geometry" />
        </mxCell>
        <mxCell id="_4ekiTGMIbGtFQKtluX7-14" style="edgeStyle=orthogonalEdgeStyle;rounded=0;orthogonalLoop=1;jettySize=auto;html=1;exitX=1;exitY=0.25;exitDx=0;exitDy=0;entryX=0;entryY=0.25;entryDx=0;entryDy=0;" edge="1" parent="1" source="_4ekiTGMIbGtFQKtluX7-4" target="_4ekiTGMIbGtFQKtluX7-5">
          <mxGeometry relative="1" as="geometry" />
        </mxCell>
        <mxCell id="_4ekiTGMIbGtFQKtluX7-15" value="stop" style="edgeLabel;html=1;align=center;verticalAlign=middle;resizable=0;points=[];" vertex="1" connectable="0" parent="_4ekiTGMIbGtFQKtluX7-14">
          <mxGeometry x="0.2117" y="-1" relative="1" as="geometry">
            <mxPoint x="-20" y="-14" as="offset" />
          </mxGeometry>
        </mxCell>
        <mxCell id="_4ekiTGMIbGtFQKtluX7-4" value="Running" style="rounded=1;whiteSpace=wrap;html=1;" vertex="1" parent="1">
          <mxGeometry x="240" y="190" width="120" height="60" as="geometry" />
        </mxCell>
        <mxCell id="_4ekiTGMIbGtFQKtluX7-10" style="edgeStyle=orthogonalEdgeStyle;rounded=0;orthogonalLoop=1;jettySize=auto;html=1;" edge="1" parent="1">
          <mxGeometry relative="1" as="geometry">
            <mxPoint x="559.9999999999998" y="230" as="sourcePoint" />
            <mxPoint x="360.0000000000002" y="230" as="targetPoint" />
          </mxGeometry>
        </mxCell>
        <mxCell id="_4ekiTGMIbGtFQKtluX7-11" value="start" style="edgeLabel;html=1;align=center;verticalAlign=middle;resizable=0;points=[];" vertex="1" connectable="0" parent="_4ekiTGMIbGtFQKtluX7-10">
          <mxGeometry x="0.2021" y="1" relative="1" as="geometry">
            <mxPoint x="20" y="9" as="offset" />
          </mxGeometry>
        </mxCell>
        <mxCell id="_4ekiTGMIbGtFQKtluX7-12" style="edgeStyle=orthogonalEdgeStyle;rounded=0;orthogonalLoop=1;jettySize=auto;html=1;entryX=1;entryY=0.5;entryDx=0;entryDy=0;" edge="1" parent="1" source="_4ekiTGMIbGtFQKtluX7-5" target="_4ekiTGMIbGtFQKtluX7-16">
          <mxGeometry relative="1" as="geometry">
            <mxPoint x="519.9999999999998" y="310" as="targetPoint" />
            <Array as="points">
              <mxPoint x="620" y="315" />
            </Array>
          </mxGeometry>
        </mxCell>
        <mxCell id="_4ekiTGMIbGtFQKtluX7-13" value="delete" style="edgeLabel;html=1;align=center;verticalAlign=middle;resizable=0;points=[];" vertex="1" connectable="0" parent="_4ekiTGMIbGtFQKtluX7-12">
          <mxGeometry x="0.2355" y="2" relative="1" as="geometry">
            <mxPoint x="-8" y="-11" as="offset" />
          </mxGeometry>
        </mxCell>
        <mxCell id="_4ekiTGMIbGtFQKtluX7-5" value="Stopped" style="rounded=1;whiteSpace=wrap;html=1;" vertex="1" parent="1">
          <mxGeometry x="560" y="190" width="120" height="60" as="geometry" />
        </mxCell>
        <mxCell id="_4ekiTGMIbGtFQKtluX7-8" style="edgeStyle=orthogonalEdgeStyle;rounded=0;orthogonalLoop=1;jettySize=auto;html=1;entryX=0.5;entryY=0;entryDx=0;entryDy=0;" edge="1" parent="1" source="_4ekiTGMIbGtFQKtluX7-6" target="_4ekiTGMIbGtFQKtluX7-4">
          <mxGeometry relative="1" as="geometry" />
        </mxCell>
        <mxCell id="_4ekiTGMIbGtFQKtluX7-9" value="start" style="edgeLabel;html=1;align=center;verticalAlign=middle;resizable=0;points=[];" vertex="1" connectable="0" parent="_4ekiTGMIbGtFQKtluX7-8">
          <mxGeometry x="-0.0489" relative="1" as="geometry">
            <mxPoint y="-10" as="offset" />
          </mxGeometry>
        </mxCell>
        <mxCell id="_4ekiTGMIbGtFQKtluX7-6" value="Deployed" style="rounded=1;whiteSpace=wrap;html=1;" vertex="1" parent="1">
          <mxGeometry x="400" y="100" width="120" height="60" as="geometry" />
        </mxCell>
        <mxCell id="_4ekiTGMIbGtFQKtluX7-16" value="" style="ellipse;html=1;shape=endState;fillColor=#000000;strokeColor=#ff0000;" vertex="1" parent="1">
          <mxGeometry x="445" y="300" width="30" height="30" as="geometry" />
        </mxCell>
        <mxCell id="_4ekiTGMIbGtFQKtluX7-17" value="Disposed" style="text;html=1;align=center;verticalAlign=middle;whiteSpace=wrap;rounded=0;" vertex="1" parent="1">
          <mxGeometry x="430" y="330" width="60" height="20" as="geometry" />
        </mxCell>
      </root>
    </mxGraphModel>
  </diagram>
</mxfile>
